<svg width="18" height="18" viewBox="0 0 18 18" fill="none" xmlns="http://www.w3.org/2000/svg">
<path fill-rule="evenodd" clip-rule="evenodd" d="M3.75 1.75V15.25H14.25V4.75H12.45C11.7872 4.75 11.25 4.21272 11.25 3.55V1.75H3.75ZM12.2283 0.250657C12.2151 0.25022 12.2019 0.25 12.1886 0.25H3.45C2.78726 0.25 2.25 0.787259 2.25 1.45V15.55C2.25 16.2128 2.78728 16.75 3.45 16.75H14.55C15.2128 16.75 15.75 16.2128 15.75 15.55V3.8114C15.75 3.79814 15.7498 3.7849 15.7493 3.77169C15.7498 3.75946 15.75 3.74717 15.75 3.73484C15.75 3.46601 15.6434 3.20768 15.4526 3.01702C15.4528 3.01715 15.4525 3.01688 15.4526 3.01702L15.406 2.97035C15.4035 2.96787 15.4011 2.9654 15.3986 2.96294L12.983 0.54734C12.7929 0.357512 12.5346 0.25 12.2652 0.25C12.2529 0.25 12.2406 0.25022 12.2283 0.250657ZM12.75 2.43567V3.25H13.5643L12.75 2.43567ZM5.25 7C5.25 6.58579 5.58579 6.25 6 6.25H12C12.4142 6.25 12.75 6.58579 12.75 7C12.75 7.41421 12.4142 7.75 12 7.75H6C5.58579 7.75 5.25 7.41421 5.25 7ZM5.25 10C5.25 9.58579 5.58579 9.25 6 9.25H9C9.41421 9.25 9.75 9.58579 9.75 10C9.75 10.4142 9.41421 10.75 9 10.75H6C5.58579 10.75 5.25 10.4142 5.25 10ZM5.25 13C5.25 12.5858 5.58579 12.25 6 12.25H12C12.4142 12.25 12.75 12.5858 12.75 13C12.75 13.4142 12.4142 13.75 12 13.75H6C5.58579 13.75 5.25 13.4142 5.25 13Z" fill="black"/>
</svg>
