<svg width="24" height="24" viewBox="0 0 24 24" fill="none" xmlns="http://www.w3.org/2000/svg">
<path fill-rule="evenodd" clip-rule="evenodd" d="M4.75 2.75V21.25H19.25V6.75H16.6C15.8544 6.75 15.25 6.14556 15.25 5.4V2.75H4.75ZM16.3049 1.25106C16.2871 1.25035 16.2693 1.25 16.2515 1.25H4.6C3.85442 1.25 3.25 1.85442 3.25 2.6V21.4C3.25 22.1456 3.85444 22.75 4.6 22.75H19.4C20.1456 22.75 20.75 22.1456 20.75 21.4V5.74853C20.75 5.73069 20.7496 5.7129 20.7489 5.69514C20.7496 5.679 20.75 5.66277 20.75 5.64645C20.75 5.35418 20.6341 5.07337 20.4267 4.86613C20.4269 4.86626 20.4266 4.86599 20.4267 4.86613L20.3637 4.80311C20.3607 4.80006 20.3577 4.79703 20.3547 4.794L17.1339 1.57323C16.9272 1.36682 16.6464 1.25 16.3536 1.25C16.3373 1.25 16.321 1.25035 16.3049 1.25106ZM16.75 3.31069V5.25H18.6893L16.75 3.31069ZM7.25 10C7.25 9.58579 7.58579 9.25 8 9.25H16C16.4142 9.25 16.75 9.58579 16.75 10C16.75 10.4142 16.4142 10.75 16 10.75H8C7.58579 10.75 7.25 10.4142 7.25 10ZM7.25 14C7.25 13.5858 7.58579 13.25 8 13.25H12C12.4142 13.25 12.75 13.5858 12.75 14C12.75 14.4142 12.4142 14.75 12 14.75H8C7.58579 14.75 7.25 14.4142 7.25 14ZM7.25 18C7.25 17.5858 7.58579 17.25 8 17.25H16C16.4142 17.25 16.75 17.5858 16.75 18C16.75 18.4142 16.4142 18.75 16 18.75H8C7.58579 18.75 7.25 18.4142 7.25 18Z" fill="black"/>
</svg>
