<svg width="24" height="24" viewBox="0 0 24 24" fill="none" xmlns="http://www.w3.org/2000/svg">
<path fill-rule="evenodd" clip-rule="evenodd" d="M2.75 4.75V10.25H21.25V7.75H12.722C12.3998 7.75 12.0881 7.63479 11.8434 7.42499C11.8434 7.42496 11.8434 7.42503 11.8434 7.42499L8.72255 4.75H2.75ZM21.25 11.75H2.75V19.25H21.25V11.75ZM1.25 4.6C1.25 3.85442 1.85442 3.25 2.6 3.25H8.77805C9.10033 3.25 9.41195 3.3653 9.6566 3.575L12.7775 6.25H21.4C22.1456 6.25 22.75 6.85444 22.75 7.6V19.4C22.75 20.1456 22.1456 20.75 21.4 20.75H2.6C1.85444 20.75 1.25 20.1456 1.25 19.4V4.6Z" fill="black"/>
</svg>
