<svg width="18" height="18" viewBox="0 0 18 18" fill="none" xmlns="http://www.w3.org/2000/svg">
<path fill-rule="evenodd" clip-rule="evenodd" d="M2.75 3.75V7.5H15.25V6H9.5054C9.21101 6 8.93459 5.8868 8.72475 5.69406C8.72471 5.69403 8.72479 5.6941 8.72475 5.69406L6.60786 3.75H2.75ZM15.25 9H2.75V14.25H15.25V9ZM1.25 3.45C1.25 2.83684 1.72593 2.25 2.42 2.25H6.74464C7.0391 2.25 7.31549 2.3633 7.52526 2.55593L9.64215 4.5H15.58C16.2741 4.5 16.75 5.08686 16.75 5.7V14.55C16.75 15.1632 16.2741 15.75 15.58 15.75H2.42C1.72595 15.75 1.25 15.1632 1.25 14.55V3.45Z" fill="black"/>
</svg>
