<svg width="18" height="18" viewBox="0 0 18 18" fill="none" xmlns="http://www.w3.org/2000/svg">
<path fill-rule="evenodd" clip-rule="evenodd" d="M4.53837 4.53766C4.83127 4.24477 5.30614 4.24477 5.59903 4.53766L9.00067 7.93931L12.4023 4.53767C12.6952 4.24477 13.1701 4.24477 13.463 4.53766C13.7558 4.83055 13.7558 5.30543 13.463 5.59832L10.0613 8.99997L13.463 12.4016C13.7558 12.6945 13.7558 13.1694 13.463 13.4623C13.1701 13.7551 12.6952 13.7551 12.4023 13.4623L9.00067 10.0606L5.59903 13.4623C5.30614 13.7551 4.83126 13.7551 4.53837 13.4623C4.24548 13.1694 4.24548 12.6945 4.53837 12.4016L7.94001 8.99997L4.53837 5.59832C4.24548 5.30543 4.24548 4.83056 4.53837 4.53766Z" fill="black"/>
</svg>
