<svg width="24" height="24" viewBox="0 0 24 24" fill="none" xmlns="http://www.w3.org/2000/svg">
<path fill-rule="evenodd" clip-rule="evenodd" d="M6.21994 6.21994C6.5132 5.92669 6.98865 5.92669 7.28191 6.21994L12 10.9381L16.7181 6.21994C17.0113 5.92669 17.4868 5.92669 17.78 6.21994C18.0733 6.51319 18.0733 6.98865 17.7801 7.2819L13.062 12L17.78 16.7181C18.0733 17.0113 18.0733 17.4868 17.78 17.7801C17.4868 18.0733 17.0113 18.0733 16.7181 17.7801L12 13.062L7.28191 17.7801C6.98865 18.0733 6.51319 18.0733 6.21994 17.7801C5.92669 17.4868 5.92669 17.0113 6.21994 16.7181L10.938 12L6.21994 7.28191C5.92669 6.98865 5.92669 6.51319 6.21994 6.21994Z" fill="black"/>
</svg>
